# xmcd
#
# Track frame offsets:
#	150
#	12920
#	24357
#	38256
#	53259
#	63706
#	79495
#	90411
#	110758
#	120682
#	136122
#	146809
#
# Disc length: 2113 seconds
#
# Revision: 1
# Processed by: cddbd v1.4PL0 Copyright (c) Steve Scherf et al.
# Submitted via: audiograbber 1.81.02
#
DISCID=95083f0c
DTITLE=J.D.Crowe - and the New South
DYEAR=1900
DGENRE=Bluegrass
TTITLE0=Old Home Place
TTITLE1=Some Old Day
TTITLE2=Rock,Salt and Nails
TTITLE3=Sally Goodin'
TTITLE4=Ten Degrees and Getting Colder
TTITLE5=Nashville Blue
TTITLE6=You Are What I Am
TTITLE7=Summer Wages
TTITLE8=I'm Walkin'
TTITLE9=Home Sweet Home Revisited
TTITLE10=Ctyin'Holy Unto the Lord
TTITLE11=Why Don't You Tell Me So
EXTD=
EXTT0=
EXTT1=
EXTT2=
EXTT3=
EXTT4=
EXTT5=
EXTT6=
EXTT7=
EXTT8=
EXTT9=
EXTT10=
EXTT11=
PLAYORDER=
